# xmcd
#
# Track frame offsets:
#	150
#	10364
#	31492
#	47497
#	66786
#	82021
#	98726
#	117948
#	133997
#	159218
#
# Disc length: 2484 seconds
#
# Revision: 1
# Processed by: cddbd v1.5.2PL0 Copyright (c) Steve Scherf et al.
# Submitted via: EasyCDDAExtractor 7.0.5.4
#
DISCID=7d09b20a
DTITLE=Cary Ann Hearst - Shovels and Rope
DYEAR=2009
DGENRE=
TTITLE0=Gasoline
TTITLE1=Boxcar
TTITLE2=Magdelina
TTITLE3=Can't Hard;y Stand It
TTITLE4=1200 Miles
TTITLE5=Hollowpoint Blues
TTITLE6=Build Around Your Heart A Wall
TTITLE7=Mother's Scorn
TTITLE8=Swing Low
TTITLE9=Mexico
EXTD=
EXTT0=
EXTT1=
EXTT2=
EXTT3=
EXTT4=
EXTT5=
EXTT6=
EXTT7=
EXTT8=
EXTT9=
PLAYORDER=
